<?xml version="1.0" encoding="UTF-8" standalone="no"?>
<svg
   width="64"
   height="64"
   viewBox="0 0 100 100"
   fill="none"
   version="1.1"
   id="svg2"
   sodipodi:docname="gemini-svg.svg"
   xml:space="preserve"
   inkscape:version="1.4.2 (f4327f4, 2025-05-13)"
   xmlns:inkscape="http://www.inkscape.org/namespaces/inkscape"
   xmlns:sodipodi="http://sodipodi.sourceforge.net/DTD/sodipodi-0.dtd"
   xmlns="http://www.w3.org/2000/svg"
   xmlns:svg="http://www.w3.org/2000/svg"><defs
     id="defs2" /><sodipodi:namedview
     id="namedview2"
     pagecolor="#ffffff"
     bordercolor="#000000"
     borderopacity="0.25"
     inkscape:showpageshadow="2"
     inkscape:pageopacity="0.0"
     inkscape:pagecheckerboard="0"
     inkscape:deskcolor="#d1d1d1"
     inkscape:zoom="6.3046875"
     inkscape:cx="13.640644"
     inkscape:cy="61.77943"
     inkscape:window-width="1920"
     inkscape:window-height="1009"
     inkscape:window-x="-8"
     inkscape:window-y="-8"
     inkscape:window-maximized="1"
     inkscape:current-layer="g46" /><g
     id="g46"
     transform="matrix(1.5625,0,0,1.5625,-674.66413,-680.63816)"
     style="fill:#4caf50;fill-opacity:1"><path
       fill="#00a83e"
       fill-rule="evenodd"
       d="m 443.77729,438.20815 -0.66875,0.4264 -0.47768,0.17055 -0.85984,0.59697 -0.2866,0.0853 -2.29289,1.7056 -1.81519,1.70558 -1.52859,1.79087 -0.0956,0.25585 -0.76429,1.02335 -0.19108,0.4264 -0.19107,0.17055 v 0.17057 l -0.95538,1.62031 -0.0956,0.42639 -0.47768,0.93808 -0.0956,0.59696 -0.19107,0.34112 v 0.25583 l -0.2866,0.76752 v 0.34112 l -0.19108,0.51168 v 0.4264 l -0.0956,0.0853 v 0.51169 l -0.0956,0.0853 v 0.59695 l -0.0956,0.0853 v 1.27919 l -0.0956,0.0853 v 24.38996 l 0.0956,0.0853 v 1.2792 l 0.0956,0.0853 v 0.59696 l 0.0956,0.0853 v 0.51168 l 0.0956,0.0853 0.0956,0.85279 0.19107,0.42639 v 0.34112 l 0.0956,0.0853 0.0956,0.59696 0.28661,0.59695 v 0.25584 l 0.19107,0.25584 v 0.25584 l 1.05091,1.87615 v 0.17056 l 0.28661,0.34112 v 0.17056 l 0.38215,0.4264 0.66875,1.10863 2.29288,2.55839 1.24198,1.10863 1.33751,0.93807 0.0956,0.17057 2.38841,1.44975 1.33752,0.59695 0.19107,0.17057 h 0.19108 l 1.52858,0.68224 1.71967,0.51167 h 0.2866 l 0.0956,0.0853 h 0.28661 l 0.85984,0.25584 h 0.38213 l 0.57323,0.17055 h 0.47768 l 0.0956,0.0853 h 0.66876 l 0.0956,0.0853 h 1.24198 l 0.0956,0.0853 h 21.20916 l 0.0956,-0.0853 h 1.43306 l 0.0956,-0.0853 1.33751,-0.0853 0.47769,-0.17055 1.24198,-0.17056 0.0956,-0.0853 h 0.2866 l 0.66876,-0.25583 h 0.28662 l 0.57321,-0.17057 2.77057,-1.10863 0.19108,-0.17056 0.47768,-0.17056 1.43305,-0.8528 0.28661,-0.0853 1.91074,-1.36448 2.1018,-1.87615 v -0.0853 l 0.19107,-0.0853 1.14645,-1.27919 1.33751,-1.79087 0.66876,-1.10864 v -0.17056 l 0.47768,-0.76752 v -0.17055 l 0.19108,-0.17057 0.0956,-0.42639 0.19108,-0.25584 0.28661,-0.76752 v -0.25583 l 0.28661,-0.51168 v -0.25584 l 0.28661,-0.76751 v -0.34112 l 0.0956,-0.0853 v -0.34112 l 0.0956,-0.0853 v -0.34112 l 0.0956,-0.0853 v -0.51167 l 0.0956,-0.0853 v -0.85279 l 0.0956,-0.0853 v -26.26611 l -0.0956,-0.0853 v -0.76752 l -0.0956,-0.0853 v -0.51168 l -0.0956,-0.0853 v -0.4264 l -0.19106,-0.51168 v -0.4264 l -0.0956,-0.0853 -0.19107,-0.93808 -0.28661,-0.59695 v -0.25584 l -0.38215,-1.02336 -0.19107,-0.25584 -0.38215,-1.02335 -0.28661,-0.4264 v -0.17056 l -1.43305,-2.21726 -0.95537,-1.2792 -1.0509,-1.10864 -2.10181,-1.87615 -1.52858,-1.10863 -2.5795,-1.44975 -1.71966,-0.76752 h -0.19107 l -0.28662,-0.17055 h -0.19107 l -0.28661,-0.17057 -1.14644,-0.34112 h -0.28661 l -1.0509,-0.34111 -0.85984,-0.0853 -0.47768,-0.17056 -1.43305,-0.0853 -0.0956,-0.0853 h -1.43306 l -0.0956,-0.0853 h -20.82702 l -0.0956,0.0853 h -1.43306 l -0.0956,0.0853 H 451.134 l -0.0956,0.0853 h -0.47768 l -0.0956,0.0853 h -0.47768 l -0.47768,0.17056 h -0.38215 l -0.38215,0.17056 h -0.38214 l -1.43306,0.4264 -0.28661,0.17056 -0.76429,0.17056 z m 15.76357,6.31069 0.85984,-0.25584 0.66875,-0.0853 0.0956,-0.0853 1.05091,-0.0853 0.0956,-0.0853 h 2.77056 l 0.0956,0.0853 h 0.47768 l 0.0956,0.0853 h 0.38215 l 0.0956,0.0853 0.66875,0.0853 1.14644,0.34112 1.14645,0.51167 0.76429,0.42641 0.7643,0.59695 0.38215,0.17056 1.33751,1.19391 1.33752,1.7056 0.76428,1.62031 1.62413,0.0853 0.0956,0.0853 0.85983,0.0853 1.14644,0.34112 1.62413,0.68224 0.85983,0.51167 0.38215,0.34112 0.38214,0.17055 0.66876,0.59696 h 0.0956 l 0.47768,0.4264 1.14645,1.36448 0.0956,0.25584 0.47768,0.59695 0.85983,1.87615 v 0.25584 l 0.0956,0.0853 v 0.25584 l 0.0956,0.0853 v 0.25584 l 0.0956,0.0853 v 0.59697 l 0.0956,0.0853 v 2.64367 l -0.0956,0.0853 v 0.51167 l -0.0956,0.0853 -0.0956,0.68224 -0.38215,0.76752 -0.0956,0.42639 -0.19107,0.25584 v 0.17056 l -0.57323,0.93808 -0.95536,1.10863 -0.19108,0.34112 -0.28661,0.17056 v 0.0853 l -0.95537,0.8528 -1.91073,1.2792 -1.52859,0.59695 v 14.83865 l -0.28661,0.59695 -0.57322,0.51168 -0.66876,0.25583 h -26.17707 l -0.0956,-0.0853 -0.57322,-0.0853 -0.66876,-0.51168 -0.38214,-0.68223 v -14.83865 l -0.57322,-0.25585 h -0.19108 l -0.38215,-0.25583 -0.47768,-0.17056 -1.33751,-0.85279 -1.71966,-1.44976 -1.33752,-1.79087 -0.66875,-1.27919 -0.28662,-0.76752 -0.19108,-0.93807 -0.0956,-0.0853 v -0.42639 l -0.0956,-0.0853 -0.0956,-1.87615 0.0956,-0.0853 0.0956,-1.36448 0.0956,-0.0853 0.0956,-0.59696 0.47768,-1.27919 0.7643,-1.36448 0.57321,-0.68224 0.0956,-0.25583 1.05091,-1.10864 1.71966,-1.27919 1.8152,-0.93808 h 0.19107 l 0.28661,-0.17056 h 0.19107 l 0.28661,-0.17056 0.85983,-0.25583 0.95537,-0.0853 0.0956,-0.0853 h 0.57322 l 0.0956,-0.0853 h 0.85984 l 0.76429,-1.62031 1.33751,-1.7056 1.24198,-1.10863 0.85983,-0.59696 1.14644,-0.68224 z m -12.993,12.70666 -0.7643,1.27919 -0.2866,0.76751 v 0.25585 l -0.0956,0.0853 v 0.34112 l -0.0956,0.0853 -0.0956,1.53503 0.0956,0.0853 v 0.68223 l 0.0956,0.0853 v 0.34112 l 0.0956,0.0853 0.0956,0.59696 0.19106,0.25583 v 0.25584 l 0.85983,1.36448 1.71967,1.6203 1.52858,0.76752 1.71967,0.51168 0.28661,0.17056 0.57322,0.59696 0.19107,0.51167 v 5.79902 h 21.97346 v -5.79902 l 0.19107,-0.51167 0.28662,-0.34112 0.57321,-0.4264 1.05091,-0.25584 1.62413,-0.68224 0.76429,-0.51167 1.24198,-1.10863 0.66875,-0.8528 0.47768,-0.8528 0.19108,-0.51167 v -0.25584 l 0.19108,-0.34112 v -0.34112 l 0.0956,-0.0853 0.0956,-1.79087 -0.0956,-0.0853 v -0.51168 l -0.0956,-0.0853 -0.0956,-0.68224 -0.66875,-1.53503 -0.95537,-1.19391 -1.43305,-1.19392 -1.91074,-0.85279 -0.57321,-0.17056 h -0.28661 l -0.0956,-0.0853 h -0.38215 l -0.0956,-0.0853 h -2.48397 l -0.0956,-0.0853 h -0.28661 l -0.47769,-0.25584 -0.47768,-0.4264 -0.19108,-0.34112 -0.19107,-0.85279 -0.28661,-0.76751 -0.38214,-0.68224 -1.05091,-1.2792 -0.66876,-0.59695 -1.0509,-0.68224 -1.14644,-0.51168 -0.47768,-0.0853 -0.28661,-0.17055 -0.7643,-0.0853 -0.0956,-0.0853 h -0.57322 l -0.0956,-0.0853 -1.91073,0.0853 -0.0956,0.0853 h -0.2866 l -0.0956,0.0853 h -0.28661 l -0.0956,0.0853 h -0.2866 l -0.57323,0.17056 -1.62412,0.76752 -0.66875,0.59695 h -0.0956 l -0.19107,0.25585 h -0.0956 l -1.05091,1.19391 -0.7643,1.44975 -0.28661,1.10863 -0.19107,0.34112 -0.57322,0.51168 -0.76429,0.25584 h -2.38842 l -0.0956,0.0853 h -0.47769 l -0.38214,0.17056 -0.57322,0.0853 -0.47768,0.25584 h -0.19108 l -0.57322,0.34112 h -0.19108 l -0.95536,0.59695 z m 6.11435,21.40517 v 5.20205 h 21.97346 v -5.20205 z"
       id="path1"
       style="fill:#4caf50;fill-opacity:1;stroke-width:0.0902627"
       inkscape:transform-center-x="4.8734994"
       inkscape:transform-center-y="-1.1910013" /></g></svg>
